<svg
	width="24"
	height="24"
	viewBox="0 0 24 24"
	fill="none"
	xmlns="http://www.w3.org/2000/svg"
>
	<g clip-path="url(#notification)">
		<path
			d="M17.449 15.3689C17.0205 14.9868 16.6452 14.5488 16.3335 14.0667C15.9931 13.4011 15.7892 12.6743 15.7335 11.9289V9.73333C15.7364 8.56249 15.3117 7.43088 14.5392 6.5511C13.7666 5.67132 12.6993 5.10394 11.5379 4.95555V4.38222C11.5379 4.22486 11.4754 4.07394 11.3642 3.96267C11.2529 3.8514 11.102 3.78889 10.9446 3.78889C10.7872 3.78889 10.6363 3.8514 10.5251 3.96267C10.4138 4.07394 10.3513 4.22486 10.3513 4.38222V4.96444C9.20027 5.12352 8.14592 5.69433 7.3835 6.57116C6.62108 7.44798 6.20226 8.5714 6.2046 9.73333V11.9289C6.14894 12.6743 5.94495 13.4011 5.6046 14.0667C5.29833 14.5477 4.92913 14.9857 4.50682 15.3689C4.45942 15.4105 4.42142 15.4618 4.39537 15.5193C4.36931 15.5768 4.35579 15.6391 4.35571 15.7022V16.3067C4.35571 16.4245 4.40254 16.5376 4.48589 16.6209C4.56924 16.7043 4.68228 16.7511 4.80016 16.7511H17.1557C17.2736 16.7511 17.3866 16.7043 17.47 16.6209C17.5533 16.5376 17.6002 16.4245 17.6002 16.3067V15.7022C17.6001 15.6391 17.5866 15.5768 17.5605 15.5193C17.5345 15.4618 17.4965 15.4105 17.449 15.3689ZM5.28016 15.8622C5.69367 15.4628 6.05776 15.0151 6.3646 14.5289C6.79332 13.7251 7.04346 12.8382 7.09794 11.9289V9.73333C7.08031 9.21246 7.16768 8.69337 7.35484 8.20696C7.54201 7.72056 7.82514 7.27679 8.18738 6.90209C8.54962 6.52738 8.98355 6.22941 9.46335 6.0259C9.94314 5.82239 10.459 5.71751 10.9802 5.71751C11.5013 5.71751 12.0172 5.82239 12.497 6.0259C12.9768 6.22941 13.4107 6.52738 13.7729 6.90209C14.1352 7.27679 14.4183 7.72056 14.6055 8.20696C14.7926 8.69337 14.88 9.21246 14.8624 9.73333V11.9289C14.9169 12.8382 15.167 13.7251 15.5957 14.5289C15.9026 15.0151 16.2666 15.4628 16.6802 15.8622H5.28016Z"
			fill="white"
		/>
		<path
			d="M11.0001 18.2356C11.28 18.2291 11.5487 18.1239 11.7586 17.9384C11.9684 17.753 12.1059 17.4993 12.1467 17.2222H9.80896C9.85095 17.5068 9.99488 17.7664 10.214 17.9528C10.4331 18.1392 10.7124 18.2397 11.0001 18.2356Z"
			fill="white"
		/>
	</g>
	<circle cx="17.0001" cy="17" r="4" fill="red" />
	<path
		d="M23.5002 12C23.5002 15.0122 23.4995 17.229 23.3158 18.8823C23.1317 20.5393 22.7727 21.5204 22.1467 22.1464C21.5206 22.7725 20.5395 23.1314 18.8825 23.3156C17.2292 23.4993 15.0124 23.5 12.0002 23.5C8.98799 23.5 6.77122 23.4993 5.11791 23.3156C3.46092 23.1314 2.47982 22.7725 1.85372 22.1464C1.22763 21.5204 0.868713 20.5393 0.684608 18.8823C0.500913 17.229 0.500183 15.0122 0.500207 12C0.500231 8.98779 0.500985 6.77102 0.68469 5.11772C0.868804 3.46073 1.22772 2.47964 1.8538 1.85355C2.47988 1.22747 3.46096 0.868551 5.11794 0.684442C6.77123 0.500742 8.98799 0.5 12.0002 0.5C15.0108 0.5 17.2271 0.511653 18.8785 0.708454C20.5328 0.905589 21.5159 1.27894 22.1441 1.91624C22.773 2.55426 23.1318 3.54338 23.3158 5.19138C23.4995 6.83639 23.5002 9.03135 23.5002 12Z"
		stroke="transparent"
	/>
	<defs>
		<clipPath id="notification">
			<rect
				width="16"
				height="16"
				fill="white"
				transform="translate(3.00012 3)"
			/>
		</clipPath>
	</defs>
</svg>
