<svg
	width="24"
	height="24"
	viewBox="0 0 24 24"
	fill="none"
	xmlns="http://www.w3.org/2000/svg"
>
	<path
		d="M23.5003 12C23.5003 15.0122 23.4996 17.229 23.3159 18.8823C23.1318 20.5393 22.7729 21.5204 22.1468 22.1464C21.5207 22.7725 20.5396 23.1314 18.8826 23.3156C17.2293 23.4993 15.0125 23.5 12.0003 23.5C8.98811 23.5 6.77134 23.4993 5.11803 23.3156C3.46104 23.1314 2.47994 22.7725 1.85385 22.1464C1.22775 21.5204 0.868835 20.5393 0.68473 18.8823C0.501035 17.229 0.500305 15.0122 0.500329 12C0.500353 8.98779 0.501107 6.77102 0.684812 5.11772C0.868926 3.46073 1.22784 2.47964 1.85392 1.85355C2.48 1.22747 3.46108 0.868551 5.11806 0.684442C6.77135 0.500742 8.98811 0.5 12.0003 0.5C15.0109 0.5 17.2272 0.511653 18.8787 0.708454C20.533 0.905589 21.516 1.27894 22.1442 1.91624C22.7731 2.55426 23.1319 3.54338 23.3159 5.19138C23.4996 6.83639 23.5003 9.03135 23.5003 12Z"
		stroke="transparent"
	/>
	<g clip-path="url(#theme)">
		<path
			d="M10.4001 4.27732C10.5042 4.39593 10.568 4.54109 10.5832 4.69404C10.5984 4.847 10.5644 5.00071 10.4854 5.13532C9.86875 6.1968 9.54669 7.38662 9.5489 8.59532C9.5489 12.6163 13.0455 15.8723 17.3549 15.8723C17.917 15.8723 18.4642 15.8173 18.9901 15.7123C19.1513 15.6796 19.3192 15.6921 19.4729 15.7483C19.6266 15.8045 19.7592 15.9019 19.8541 16.0283C19.9544 16.1598 20.0055 16.3186 19.9995 16.4801C19.9935 16.6416 19.9308 16.7967 19.8211 16.9213C18.9845 17.8848 17.929 18.661 16.7318 19.1935C15.5345 19.726 14.2256 20.0013 12.9004 19.9993C7.983 19.9993 4 16.2853 4 11.7093C4 8.26532 6.25497 5.31132 9.46569 4.05932C9.62563 3.99595 9.80318 3.98295 9.97168 4.02226C10.1402 4.06157 10.2905 4.15107 10.4001 4.27732ZM9.18196 5.31032C7.94738 5.93115 6.91529 6.85396 6.19538 7.98068C5.47547 9.1074 5.09463 10.3959 5.09335 11.7093C5.09335 15.7293 8.59101 18.9853 12.9004 18.9853C13.9324 18.987 14.9544 18.7968 15.9075 18.4257C16.8605 18.0546 17.7255 17.5099 18.4525 16.8233C18.093 16.8653 17.7272 16.8863 17.3549 16.8863C12.4375 16.8863 8.45554 13.1723 8.45554 8.59632C8.45554 7.42932 8.71368 6.31832 9.18196 5.31032Z"
			fill="currentColor"
		/>
	</g>
	<defs>
		<clipPath id="theme">
			<rect
				width="16"
				height="16"
				fill="currentColor"
				transform="translate(4.00012 4)"
			/>
		</clipPath>
	</defs>
</svg>
