<svg
	width="24"
	height="24"
	viewBox="0 0 24 24"
	fill="none"
	xmlns="http://www.w3.org/2000/svg"
>
	<path
		d="M23.5004 12.0001C23.5004 15.0123 23.4997 17.2291 23.316 18.8824C23.1318 20.5394 22.7729 21.5205 22.1468 22.1466C21.5207 22.7727 20.5396 23.1316 18.8826 23.3157C17.2293 23.4994 15.0126 23.5001 12.0004 23.5001C8.98812 23.5001 6.77133 23.4993 5.11802 23.3156C3.46101 23.1315 2.47992 22.7726 1.85383 22.1465C1.22774 21.5204 0.868835 20.5393 0.68474 18.8823C0.501055 17.229 0.500336 15.0123 0.500367 12.0001C0.500336 8.98786 0.501056 6.77109 0.684741 5.11778C0.868835 3.46079 1.22774 2.47969 1.85383 1.8536C2.47992 1.22751 3.46101 0.868595 5.11801 0.684489C6.77133 0.500793 8.98812 0.500062 12.0004 0.500084C15.0126 0.500062 17.2293 0.500788 18.8826 0.684477C20.5396 0.868576 21.5206 1.22749 22.1467 1.85357C22.7728 2.47966 23.1317 3.46076 23.3159 5.11775C23.4996 6.77107 23.5003 8.98785 23.5004 12.0001Z"
		stroke="transparent"
	/>
	<path
		d="M16.0002 17.8342H12.0002C11.8676 17.8342 11.7404 17.7815 11.6467 17.6877C11.5529 17.594 11.5002 17.4668 11.5002 17.3341C11.5002 17.2015 11.5529 17.0743 11.6467 16.9806C11.7404 16.8868 11.8676 16.8341 12.0002 16.8341H16.0002C16.2212 16.8341 16.4332 16.7463 16.5895 16.59C16.7457 16.4337 16.8335 16.2217 16.8335 16.0007V8.00014C16.8335 7.77911 16.7457 7.56714 16.5895 7.41085C16.4332 7.25455 16.2212 7.16675 16.0002 7.16675H8.0002C7.77919 7.16675 7.56723 7.25455 7.41095 7.41085C7.25467 7.56714 7.16687 7.77911 7.16687 8.00014V12.0004C7.16687 12.133 7.11419 12.2602 7.02042 12.354C6.92666 12.4478 6.79948 12.5005 6.66687 12.5005C6.53426 12.5005 6.40708 12.4478 6.31332 12.354C6.21955 12.2602 6.16687 12.133 6.16687 12.0004V8.00014C6.16687 7.51388 6.36002 7.04753 6.70384 6.70369C7.04766 6.35985 7.51397 6.16668 8.0002 6.16668H16.0002C16.4864 6.16668 16.9527 6.35985 17.2966 6.70369C17.6404 7.04753 17.8335 7.51388 17.8335 8.00014V16.0007C17.8335 16.487 17.6404 16.9533 17.2966 17.2972C16.9527 17.641 16.4864 17.8342 16.0002 17.8342Z"
		fill="currentColor"
	/>
	<path
		d="M14.6669 12.4994C14.5348 12.4977 14.4087 12.4444 14.3153 12.351C14.2219 12.2576 14.1686 12.1315 14.1669 11.9994V9.83285H12.0002C11.8676 9.83285 11.7405 9.78018 11.6467 9.68641C11.5529 9.59265 11.5002 9.46548 11.5002 9.33288C11.5002 9.20027 11.5529 9.0731 11.6467 8.97934C11.7405 8.88558 11.8676 8.8329 12.0002 8.8329H14.6669C14.799 8.83463 14.9252 8.88786 15.0186 8.98125C15.112 9.07464 15.1652 9.20081 15.1669 9.33288V11.9994C15.1652 12.1315 15.112 12.2576 15.0186 12.351C14.9252 12.4444 14.799 12.4977 14.6669 12.4994Z"
		fill="currentColor"
	/>
	<path
		d="M11.6669 12.8332C11.5382 12.8233 11.4186 12.7635 11.3335 12.6665C11.2515 12.5748 11.2062 12.4561 11.2062 12.3331C11.2062 12.2102 11.2515 12.0915 11.3335 11.9998L14.3335 8.99958C14.4283 8.91125 14.5537 8.86316 14.6832 8.86545C14.8128 8.86774 14.9363 8.92021 15.028 9.01183C15.1196 9.10344 15.172 9.22704 15.1743 9.35659C15.1766 9.48613 15.1285 9.6115 15.0402 9.70629L12.0002 12.6665C11.9152 12.7635 11.7955 12.8233 11.6669 12.8332ZM9.33354 17.8335H7.33354C7.02466 17.8318 6.72893 17.7083 6.51051 17.4899C6.2921 17.2714 6.16862 16.9757 6.16687 16.6668V14.6666C6.16862 14.3577 6.2921 14.062 6.51051 13.8436C6.72893 13.6251 7.02466 13.5016 7.33354 13.4999H9.33354C9.64242 13.5016 9.93815 13.6251 10.1566 13.8436C10.375 14.062 10.4985 14.3577 10.5002 14.6666V16.6668C10.4985 16.9757 10.375 17.2714 10.1566 17.4899C9.93815 17.7083 9.64242 17.8318 9.33354 17.8335ZM7.33354 14.5C7.28933 14.5 7.24694 14.5175 7.21569 14.5488C7.18443 14.58 7.16687 14.6224 7.16687 14.6666V16.6668C7.16687 16.711 7.18443 16.7534 7.21569 16.7847C7.24694 16.8159 7.28933 16.8335 7.33354 16.8335H9.33354C9.37774 16.8335 9.42013 16.8159 9.45139 16.7847C9.48264 16.7534 9.5002 16.711 9.5002 16.6668V14.6666C9.5002 14.6224 9.48264 14.58 9.45139 14.5488C9.42013 14.5175 9.37774 14.5 9.33354 14.5H7.33354Z"
		fill="currentColor"
	/>
</svg>
