<svg
	width="24"
	height="24"
	viewBox="0 0 24 24"
	fill="none"
	xmlns="http://www.w3.org/2000/svg"
>
	<path
		d="M23.5004 12.0057C23.5004 15.0178 23.4996 17.2342 23.3159 18.8869C23.1318 20.5434 22.7729 21.5237 22.147 22.149C21.521 22.7745 20.5399 23.1328 18.8828 23.3164C17.2294 23.4996 15.0126 23.5 12.0004 23.4999C8.98816 23.4999 6.77138 23.4991 5.11807 23.3155C3.46106 23.1315 2.47995 22.7727 1.85388 22.147C1.22785 21.5212 0.868963 20.5407 0.684854 18.8846C0.501152 17.2321 0.500395 15.0165 0.500367 12.0057C0.500339 9.04436 0.501095 6.85895 0.684735 5.22265C0.868662 3.58379 1.22716 2.60258 1.85554 1.96858C2.48419 1.3343 3.46823 0.961502 5.12378 0.758585C6.7762 0.556053 8.99294 0.532608 12.0039 0.51142C15.0154 0.490229 17.2317 0.480004 18.884 0.658796C20.5395 0.837951 21.5199 1.19821 22.1457 1.82755C22.7725 2.45786 23.1317 3.44635 23.3159 5.11009C23.4996 6.76982 23.5004 8.99229 23.5004 12.0057Z"
		fill="#c62828"
		stroke="#ac2020"
	/>
	<g clip-path="url(#window_close)">
		<path
			d="M12.931 11.9981L16.2852 8.75827C16.3606 8.67326 16.4 8.56389 16.3955 8.45204C16.391 8.34019 16.343 8.23409 16.2611 8.15494C16.1791 8.07579 16.0693 8.02942 15.9535 8.0251C15.8377 8.02078 15.7244 8.05883 15.6364 8.13163L12.2822 11.3715L8.92796 8.12719C8.83994 8.05438 8.72672 8.01634 8.61092 8.02066C8.49512 8.02498 8.38527 8.07134 8.30333 8.15049C8.22138 8.22964 8.17338 8.33575 8.16891 8.4476C8.16443 8.55945 8.20382 8.66881 8.2792 8.75383L11.6334 11.9981L8.2746 15.238C8.22643 15.2778 8.18732 15.3269 8.1597 15.382C8.13208 15.4372 8.11656 15.4972 8.11411 15.5584C8.11166 15.6196 8.12234 15.6807 8.14547 15.7377C8.16861 15.7947 8.20369 15.8465 8.24853 15.8898C8.29337 15.9331 8.347 15.967 8.40604 15.9894C8.46509 16.0117 8.52828 16.022 8.59164 16.0197C8.65501 16.0173 8.71719 16.0023 8.77427 15.9756C8.83135 15.949 8.88211 15.9112 8.92336 15.8646L12.2822 12.6248L15.6364 15.8646C15.7244 15.9375 15.8377 15.9755 15.9535 15.9712C16.0693 15.9669 16.1791 15.9205 16.2611 15.8413C16.343 15.7622 16.391 15.6561 16.3955 15.5442C16.4 15.4324 16.3606 15.323 16.2852 15.238L12.931 11.9981Z"
			fill="white"
		/>
	</g>
	<defs>
		<clipPath id="window_close">
			<rect
				width="16.5641"
				height="15.9932"
				fill="white"
				transform="translate(4.00012 4)"
			/>
		</clipPath>
	</defs>
</svg>
