<svg
	width="24"
	height="24"
	viewBox="0 0 24 24"
	fill="none"
	xmlns="http://www.w3.org/2000/svg"
>
	<path
		d="M23.5003 12C23.5003 15.0122 23.4996 17.229 23.3159 18.8823C23.1318 20.5393 22.7729 21.5204 22.1468 22.1464C21.5207 22.7725 20.5396 23.1314 18.8826 23.3156C17.2293 23.4993 15.0125 23.5 12.0003 23.5C8.98811 23.5 6.77134 23.4993 5.11803 23.3156C3.46104 23.1314 2.47994 22.7725 1.85385 22.1464C1.22775 21.5204 0.868835 20.5393 0.68473 18.8823C0.501035 17.229 0.500305 15.0122 0.500329 12C0.500353 8.98779 0.501107 6.77102 0.684812 5.11772C0.868926 3.46073 1.22784 2.47964 1.85392 1.85355C2.48 1.22747 3.46108 0.868551 5.11806 0.684442C6.77135 0.500742 8.98811 0.5 12.0003 0.5C15.0109 0.5 17.2272 0.511653 18.8787 0.708454C20.533 0.905589 21.516 1.27894 22.1442 1.91624C22.7731 2.55426 23.1319 3.54338 23.3159 5.19138C23.4996 6.83639 23.5003 9.03135 23.5003 12Z"
		stroke="transparent"
	/>
	<path d="M18.9999 13H4.99988V11H18.9999" fill="currentColor" />
</svg>
